<?xml version="1.0" standalone="no"?>
<!DOCTYPE svg PUBLIC "-//W3C//DTD SVG 20010904//EN"
 "http://www.w3.org/TR/2001/REC-SVG-20010904/DTD/svg10.dtd">
<svg version="1.0" xmlns="http://www.w3.org/2000/svg"
 width="150.000000pt" height="150.000000pt" viewBox="0 0 150.000000 150.000000"
 preserveAspectRatio="xMidYMid meet">
<metadata>
Created by potrace 1.11, written by Peter Selinger 2001-2013
</metadata>
<g transform="translate(0.000000,150.000000) scale(0.100000,-0.100000)"
fill="#000000" stroke="none">
<path d="M0 750 l0 -750 663 0 662 0 88 85 c60 58 82 85 70 86 -10 0 -53 1
-95 1 l-78 1 0 283 c0 305 -6 346 -53 377 -79 51 -211 31 -288 -44 l-29 -28 0
-294 0 -294 -115 -1 -115 0 0 31 c-4 383 -4 837 0 838 3 1 55 2 115 3 l110 1
5 -54 5 -55 30 28 c86 81 244 119 375 91 45 -9 115 -49 135 -77 14 -21 15 1
15 250 l0 272 -750 0 -750 0 0 -750z m470 465 l0 -91 -125 -1 c-76 -1 -127 2
-131 9 -5 8 -8 84 -5 155 1 22 4 22 131 21 l130 -1 0 -92z m-2 -606 l2 -435
-131 0 -132 1 1 427 c0 235 2 431 5 435 3 5 61 8 129 8 l123 0 3 -436z"/>
</g>
</svg>
